# xmcd
#
# Track frame offsets:
#	150
#	17215
#	32605
#	48775
#	65131
#	81783
#	96658
#	112373
#	128801
#	146677
#	163570
#	183960
#	201241
#
# Disc length: 2894 seconds
#
# Revision: 2
# Processed by: cddbd v1.5.2PL0 Copyright (c) Steve Scherf et al.
# Submitted via: audiograbber 1.83.01
#
DISCID=bd0b4c0d
DTITLE=Luke Bryan - Tailgates and Tanlines
DYEAR=2012
DGENRE=Country
TTITLE0=Country Girl (Shake It For Me)
TTITLE1=Kiss Tomorrow Goodbye
TTITLE2=Drunk On You
TTITLE3=Too Damn Young
TTITLE4=I Don't Want This Night To End
TTITLE5=You Don't Know Jack
TTITLE6=Harvest Time
TTITLE7=I Know You're Gonna Be There
TTITLE8=Muckalee Creek Water
TTITLE9=Tailgate Blues
TTITLE10=Been There, Done That
TTITLE11=Faded Away
TTITLE12=I Knew You That Way
EXTD=
EXTT0=
EXTT1=
EXTT2=
EXTT3=
EXTT4=
EXTT5=
EXTT6=
EXTT7=
EXTT8=
EXTT9=
EXTT10=
EXTT11=
EXTT12=
PLAYORDER=
